<?xml version="1.0" encoding="UTF-8" standalone="no"?>
<!-- Created with Inkscape (http://www.inkscape.org/) -->
<svg xmlns:rdf="http://www.w3.org/1999/02/22-rdf-syntax-ns#" xmlns="http://www.w3.org/2000/svg" xmlns:osb="http://www.openswatchbook.org/uri/2009/osb" height="600" width="800" version="1.1" xmlns:cc="http://creativecommons.org/ns#" xmlns:xlink="http://www.w3.org/1999/xlink" xmlns:dc="http://purl.org/dc/elements/1.1/">
 <defs>
  <linearGradient id="linearGradient5895">
   <stop offset="0"/>
   <stop stop-color="#4c4c4c" stop-opacity=".99444" offset="1"/>
  </linearGradient>
  <linearGradient id="linearGradient5883">
   <stop stop-color="#fff" stop-opacity=".23569" offset="0"/>
   <stop stop-color="#fff" stop-opacity="0" offset="1"/>
  </linearGradient>
  <linearGradient id="linearGradient5595">
   <stop stop-color="#0038b9" offset="0"/>
   <stop stop-color="#0082ff" offset="1"/>
  </linearGradient>
  <linearGradient id="linearGradient5585">
   <stop stop-color="#bcbcbc" offset="0"/>
   <stop stop-color="#e3e3e3" offset="1"/>
  </linearGradient>
  <linearGradient id="linearGradient5468" y2="215.58" gradientUnits="userSpaceOnUse" x2="250.79" gradientTransform="translate(250.83 121.94)" y1="442.01" x1="113.5">
   <stop stop-color="#0578d0" offset="0"/>
   <stop stop-color="#dfeff8" offset="1"/>
  </linearGradient>
  <linearGradient id="linearGradient5470" y2="394.5" gradientUnits="userSpaceOnUse" x2="320.15" y1="257.62" x1="329.82">
   <stop stop-color="#fff" stop-opacity=".44444" offset="0"/>
   <stop stop-color="#fff" stop-opacity="0" offset="1"/>
  </linearGradient>
  <linearGradient id="linearGradient5448-5">
   <stop stop-color="#fff" stop-opacity=".44444" offset="0"/>
   <stop stop-color="#fff" stop-opacity="0" offset="1"/>
  </linearGradient>
  <linearGradient id="linearGradient5591" y2="485.86" xlink:href="#linearGradient5585" gradientUnits="userSpaceOnUse" x2="107.75" gradientTransform="matrix(1.0376 0 0 1 398.71 -336.16)" y1="460.17" x1="107.75"/>
  <linearGradient id="linearGradient5601" y2="574.47" xlink:href="#linearGradient5595" gradientUnits="userSpaceOnUse" x2="52.92" gradientTransform="translate(402.57 -320.93)" y1="574.47" x1="50.126"/>
  <linearGradient id="linearGradient5795" y2="574.47" xlink:href="#linearGradient5595" gradientUnits="userSpaceOnUse" x2="52.92" gradientTransform="translate(414.57 -320.93)" y1="574.47" x1="50.126"/>
  <linearGradient id="linearGradient5799" y2="574.47" xlink:href="#linearGradient5595" gradientUnits="userSpaceOnUse" x2="52.92" gradientTransform="translate(426.57 -320.93)" y1="574.47" x1="50.126"/>
  <linearGradient id="linearGradient5803" y2="574.47" xlink:href="#linearGradient5595" gradientUnits="userSpaceOnUse" x2="52.92" gradientTransform="translate(438.57 -320.93)" y1="574.47" x1="50.126"/>
  <linearGradient id="linearGradient5807" y2="574.47" xlink:href="#linearGradient5595" gradientUnits="userSpaceOnUse" x2="52.92" gradientTransform="translate(450.57 -320.93)" y1="574.47" x1="50.126"/>
  <linearGradient id="linearGradient5819" y2="574.47" xlink:href="#linearGradient5595" gradientUnits="userSpaceOnUse" x2="52.92" gradientTransform="translate(462.57 -320.93)" y1="574.47" x1="50.126"/>
  <linearGradient id="linearGradient5821" y2="574.47" xlink:href="#linearGradient5595" gradientUnits="userSpaceOnUse" x2="52.92" gradientTransform="translate(474.57 -320.93)" y1="574.47" x1="50.126"/>
  <linearGradient id="linearGradient5823" y2="574.47" xlink:href="#linearGradient5595" gradientUnits="userSpaceOnUse" x2="52.92" gradientTransform="translate(486.57 -320.93)" y1="574.47" x1="50.126"/>
  <linearGradient id="linearGradient5825" y2="574.47" xlink:href="#linearGradient5595" gradientUnits="userSpaceOnUse" x2="52.92" gradientTransform="translate(498.57 -320.93)" y1="574.47" x1="50.126"/>
  <linearGradient id="linearGradient5827" y2="574.47" xlink:href="#linearGradient5595" gradientUnits="userSpaceOnUse" x2="52.92" gradientTransform="translate(510.57 -320.93)" y1="574.47" x1="50.126"/>
  <linearGradient id="linearGradient5835" y2="574.47" xlink:href="#linearGradient5595" gradientUnits="userSpaceOnUse" x2="52.92" gradientTransform="translate(522.57 -320.93)" y1="574.47" x1="50.126"/>
  <linearGradient id="linearGradient5837" y2="574.47" xlink:href="#linearGradient5595" gradientUnits="userSpaceOnUse" x2="52.92" gradientTransform="translate(534.57 -320.93)" y1="574.47" x1="50.126"/>
  <linearGradient id="linearGradient5839" y2="574.47" xlink:href="#linearGradient5595" gradientUnits="userSpaceOnUse" x2="52.92" gradientTransform="translate(546.57 -320.93)" y1="574.47" x1="50.126"/>
  <linearGradient id="linearGradient5849" y2="667.47" xlink:href="#linearGradient5448-5" gradientUnits="userSpaceOnUse" x2="72.168" gradientTransform="translate(402.57 -320.93)" y1="515.11" x1="90.611"/>
  <linearGradient id="linearGradient5881" y2="488.75" xlink:href="#linearGradient5883" gradientUnits="userSpaceOnUse" x2="226.13" gradientTransform="translate(402.57 -320.93)" y1="456.47" x1="140.33"/>
  <linearGradient id="linearGradient5901" y2="680.1" xlink:href="#linearGradient5895" gradientUnits="userSpaceOnUse" x2="56.227" gradientTransform="translate(402.8 -320.82)" y1="680.1" x1="45.995"/>
  <linearGradient id="linearGradient5918" y2="680.1" xlink:href="#linearGradient5895" gradientUnits="userSpaceOnUse" y1="680.1" gradientTransform="translate(414.79 -320.82)" x2="56.227" x1="45.995"/>
  <linearGradient id="linearGradient5918-0" y2="680.1" xlink:href="#linearGradient5895" gradientUnits="userSpaceOnUse" y1="680.1" gradientTransform="translate(426.85 -320.82)" x2="56.227" x1="45.995"/>
  <linearGradient id="linearGradient5958" y2="680.1" xlink:href="#linearGradient5895" gradientUnits="userSpaceOnUse" x2="56.227" gradientTransform="translate(438.83 -320.82)" y1="680.1" x1="45.995"/>
  <linearGradient id="linearGradient5962" y2="680.1" xlink:href="#linearGradient5895" gradientUnits="userSpaceOnUse" x2="56.227" gradientTransform="translate(450.85 -320.82)" y1="680.1" x1="45.995"/>
  <linearGradient id="linearGradient5966" y2="680.1" xlink:href="#linearGradient5895" gradientUnits="userSpaceOnUse" x2="56.227" gradientTransform="translate(462.78 -320.82)" y1="680.1" x1="45.995"/>
  <linearGradient id="linearGradient5970" y2="680.1" xlink:href="#linearGradient5895" gradientUnits="userSpaceOnUse" x2="56.227" gradientTransform="translate(474.78 -320.82)" y1="680.1" x1="45.995"/>
  <linearGradient id="linearGradient5974" y2="680.1" xlink:href="#linearGradient5895" gradientUnits="userSpaceOnUse" x2="56.227" gradientTransform="translate(486.78 -320.82)" y1="680.1" x1="45.995"/>
  <linearGradient id="linearGradient5978" y2="680.1" xlink:href="#linearGradient5895" gradientUnits="userSpaceOnUse" x2="56.227" gradientTransform="translate(498.78 -320.82)" y1="680.1" x1="45.995"/>
  <linearGradient id="linearGradient5982" y2="680.1" xlink:href="#linearGradient5895" gradientUnits="userSpaceOnUse" x2="56.227" gradientTransform="translate(510.78 -320.82)" y1="680.1" x1="45.995"/>
  <linearGradient id="linearGradient5986" y2="680.1" xlink:href="#linearGradient5895" gradientUnits="userSpaceOnUse" x2="56.227" gradientTransform="translate(522.78 -320.82)" y1="680.1" x1="45.995"/>
  <linearGradient id="linearGradient5990" y2="680.1" xlink:href="#linearGradient5895" gradientUnits="userSpaceOnUse" x2="56.227" gradientTransform="translate(534.78 -320.82)" y1="680.1" x1="45.995"/>
  <linearGradient id="linearGradient5994" y2="680.1" xlink:href="#linearGradient5895" gradientUnits="userSpaceOnUse" x2="56.227" gradientTransform="translate(546.78 -320.82)" y1="680.1" x1="45.995"/>
 </defs>
 <g transform="translate(0 -452.36)">
  <g fill="none">
   <g stroke-linejoin="round" stroke-width="3">
    <path d="m136.32 901.61v-182.02h577.34v-20.849h-8.0187" stroke="#007fff"/>
    <path d="m137.12 870.34h61.744v-137.12h514.8v20.849h-8.0187" stroke="#007fff"/>
    <path d="m292.76 754.32v14.175h-197.88" stroke="#f00"/>
   </g>
   <path d="m95.445 564.66v341.31" stroke="#f00" stroke-width="3.2819"/>
  </g>
  <g transform="matrix(.62243 0 0 .62243 389.87 352.04)">
   <rect stroke-linejoin="round" ry=".17857" height="244.29" width="157.14" stroke="#333" stroke-linecap="round" y="328.59" x="353.68" stroke-width="5" fill="url(#linearGradient5468)"/>
   <a transform="translate(125.89 141.93)">
    <path d="m227.79 430.61v-58.589s127.88-65.503 156.64-150.31c28.76-84.805-2.3919 207.76-2.3919 207.76l-154.24 3.6594" fill="url(#linearGradient5470)"/>
   </a>
  </g>
  <g transform="matrix(.62525 0 0 .62525 122.19 668.68)">
   <g>
    <g>
     <rect stroke-linejoin="round" ry=".17857" height="28.065" width="160.58" stroke="#9a9a9a" stroke-linecap="round" y="123.62" x="446.97" stroke-width="1.0186" fill="url(#linearGradient5591)"/>
     <g stroke="#4e4e4e" stroke-width=".5">
      <rect ry=".17857" height="202.87" width="8.0187" y="152.11" x="449.88" fill="url(#linearGradient5601)"/>
      <rect ry=".17857" height="202.87" width="8.0187" y="152.11" x="461.88" fill="url(#linearGradient5795)"/>
      <rect ry=".17857" height="202.87" width="8.0187" y="152.11" x="473.88" fill="url(#linearGradient5799)"/>
      <rect ry=".17857" height="202.87" width="8.0187" y="152.11" x="485.88" fill="url(#linearGradient5803)"/>
      <rect ry=".17857" height="202.87" width="8.0187" y="152.11" x="497.88" fill="url(#linearGradient5807)"/>
      <rect ry=".17857" height="202.87" width="8.0187" y="152.11" x="509.88" fill="url(#linearGradient5819)"/>
      <rect ry=".17857" height="202.87" width="8.0187" y="152.11" x="521.88" fill="url(#linearGradient5821)"/>
      <rect ry=".17857" height="202.87" width="8.0187" y="152.11" x="533.88" fill="url(#linearGradient5823)"/>
      <rect ry=".17857" height="202.87" width="8.0187" y="152.11" x="545.88" fill="url(#linearGradient5825)"/>
      <rect ry=".17857" height="202.87" width="8.0187" y="152.11" x="557.88" fill="url(#linearGradient5827)"/>
      <rect ry=".17857" height="202.87" width="8.0187" y="152.11" x="569.88" fill="url(#linearGradient5835)"/>
      <rect ry=".17857" height="202.87" width="8.0187" y="152.11" x="581.88" fill="url(#linearGradient5837)"/>
      <rect ry=".17857" height="202.87" width="8.0187" y="152.11" x="593.88" fill="url(#linearGradient5839)"/>
     </g>
    </g>
    <path opacity=".69697" d="m439.46 356.97 46.508-3.2075s169.53-230.54 121.08-187.64c-51.417 45.53-161.98 122.69-161.98 122.69z" fill="url(#linearGradient5849)"/>
   </g>
   <path d="m446.68 146.07h161.18" stroke="#c4c4c4" stroke-width="1px" fill="none"/>
   <g>
    <path d="m446.48 149.48 161.38 2.2051s39.986-47.054-1.4033-28.466-159.97 26.261-159.97 26.261z" fill="url(#linearGradient5881)"/>
    <path d="m449.44 354.56h8.9105s0.56831 3.2914 0 4.756c-0.78884 2.033-2.3114 4.668-4.3727 4.668-2.1197 0-3.676-2.7137-4.4965-4.8001-0.5589-1.4212-0.0412-4.6239-0.0412-4.6239z" fill="url(#linearGradient5901)"/>
    <path d="m461.43 354.56h8.9105s0.56831 3.2914 0 4.756c-0.78884 2.033-2.3114 4.668-4.3727 4.668-2.1197 0-3.676-2.7137-4.4965-4.8001-0.5589-1.4212-0.0412-4.6239-0.0412-4.6239z" fill="url(#linearGradient5918)"/>
    <path d="m473.49 354.56h8.9105s0.56831 3.2914 0 4.756c-0.78883 2.033-2.3114 4.668-4.3727 4.668-2.1197 0-3.676-2.7137-4.4965-4.8001-0.5589-1.4212-0.0412-4.6239-0.0412-4.6239z" fill="url(#linearGradient5918-0)"/>
    <path d="m485.46 354.56h8.9105s0.56832 3.2914 0 4.756c-0.78883 2.033-2.3114 4.668-4.3727 4.668-2.1197 0-3.676-2.7137-4.4965-4.8001-0.55889-1.4212-0.0412-4.6239-0.0412-4.6239z" fill="url(#linearGradient5958)"/>
    <path d="m497.49 354.56h8.9105s0.56832 3.2914 0 4.756c-0.78883 2.033-2.3114 4.668-4.3727 4.668-2.1197 0-3.676-2.7137-4.4965-4.8001-0.5589-1.4212-0.0412-4.6239-0.0412-4.6239z" fill="url(#linearGradient5962)"/>
    <path d="m509.41 354.56h8.9104s0.56832 3.2914 0 4.756c-0.78883 2.033-2.3114 4.668-4.3727 4.668-2.1197 0-3.676-2.7137-4.4965-4.8001-0.5589-1.4212-0.0412-4.6239-0.0412-4.6239z" fill="url(#linearGradient5966)"/>
    <path d="m521.41 354.56h8.9104s0.56832 3.2914 0 4.756c-0.78883 2.033-2.3114 4.668-4.3727 4.668-2.1197 0-3.676-2.7137-4.4965-4.8001-0.5589-1.4212-0.0412-4.6239-0.0412-4.6239z" fill="url(#linearGradient5970)"/>
    <path d="m533.41 354.56h8.9104s0.56832 3.2914 0 4.756c-0.78883 2.033-2.3114 4.668-4.3727 4.668-2.1197 0-3.676-2.7137-4.4965-4.8001-0.5589-1.4212-0.0412-4.6239-0.0412-4.6239z" fill="url(#linearGradient5974)"/>
    <path d="m545.41 354.56h8.9104s0.56832 3.2914 0 4.756c-0.78883 2.033-2.3114 4.668-4.3727 4.668-2.1197 0-3.676-2.7137-4.4965-4.8001-0.5589-1.4212-0.0412-4.6239-0.0412-4.6239z" fill="url(#linearGradient5978)"/>
    <path d="m557.41 354.56h8.9104s0.56832 3.2914 0 4.756c-0.78883 2.033-2.3114 4.668-4.3727 4.668-2.1197 0-3.676-2.7137-4.4965-4.8001-0.5589-1.4212-0.0412-4.6239-0.0412-4.6239z" fill="url(#linearGradient5982)"/>
    <path d="m569.41 354.56h8.9104s0.56832 3.2914 0 4.756c-0.78883 2.033-2.3114 4.668-4.3727 4.668-2.1197 0-3.676-2.7137-4.4965-4.8001-0.5589-1.4212-0.0412-4.6239-0.0412-4.6239z" fill="url(#linearGradient5986)"/>
    <path d="m581.41 354.56h8.9104s0.56832 3.2914 0 4.756c-0.78883 2.033-2.3114 4.668-4.3727 4.668-2.1197 0-3.676-2.7137-4.4965-4.8001-0.5589-1.4212-0.0412-4.6239-0.0412-4.6239z" fill="url(#linearGradient5990)"/>
    <path d="m593.41 354.56h8.9104s0.56832 3.2914 0 4.756c-0.78883 2.033-2.3114 4.668-4.3727 4.668-2.1197 0-3.676-2.7137-4.4965-4.8001-0.5589-1.4212-0.0412-4.6239-0.0412-4.6239z" fill="url(#linearGradient5994)"/>
   </g>
  </g>
  <g transform="matrix(.62525 0 0 .62525 225.98 668.68)">
   <g>
    <g>
     <rect stroke-linejoin="round" ry=".17857" height="28.065" width="160.58" stroke="#9a9a9a" stroke-linecap="round" y="123.62" x="446.97" stroke-width="1.0186" fill="url(#linearGradient5591)"/>
     <g stroke="#4e4e4e" stroke-width=".5">
      <rect ry=".17857" height="202.87" width="8.0187" y="152.11" x="449.88" fill="url(#linearGradient5601)"/>
      <rect ry=".17857" height="202.87" width="8.0187" y="152.11" x="461.88" fill="url(#linearGradient5795)"/>
      <rect ry=".17857" height="202.87" width="8.0187" y="152.11" x="473.88" fill="url(#linearGradient5799)"/>
      <rect ry=".17857" height="202.87" width="8.0187" y="152.11" x="485.88" fill="url(#linearGradient5803)"/>
      <rect ry=".17857" height="202.87" width="8.0187" y="152.11" x="497.88" fill="url(#linearGradient5807)"/>
      <rect ry=".17857" height="202.87" width="8.0187" y="152.11" x="509.88" fill="url(#linearGradient5819)"/>
      <rect ry=".17857" height="202.87" width="8.0187" y="152.11" x="521.88" fill="url(#linearGradient5821)"/>
      <rect ry=".17857" height="202.87" width="8.0187" y="152.11" x="533.88" fill="url(#linearGradient5823)"/>
      <rect ry=".17857" height="202.87" width="8.0187" y="152.11" x="545.88" fill="url(#linearGradient5825)"/>
      <rect ry=".17857" height="202.87" width="8.0187" y="152.11" x="557.88" fill="url(#linearGradient5827)"/>
      <rect ry=".17857" height="202.87" width="8.0187" y="152.11" x="569.88" fill="url(#linearGradient5835)"/>
      <rect ry=".17857" height="202.87" width="8.0187" y="152.11" x="581.88" fill="url(#linearGradient5837)"/>
      <rect ry=".17857" height="202.87" width="8.0187" y="152.11" x="593.88" fill="url(#linearGradient5839)"/>
     </g>
    </g>
    <path opacity=".69697" d="m439.46 356.97 46.508-3.2075s169.53-230.54 121.08-187.64c-51.417 45.53-161.98 122.69-161.98 122.69z" fill="url(#linearGradient5849)"/>
   </g>
   <path d="m446.68 146.07h161.18" stroke="#c4c4c4" stroke-width="1px" fill="none"/>
   <g>
    <path d="m446.48 149.48 161.38 2.2051s39.986-47.054-1.4033-28.466-159.97 26.261-159.97 26.261z" fill="url(#linearGradient5881)"/>
    <path d="m449.44 354.56h8.9105s0.56831 3.2914 0 4.756c-0.78884 2.033-2.3114 4.668-4.3727 4.668-2.1197 0-3.676-2.7137-4.4965-4.8001-0.5589-1.4212-0.0412-4.6239-0.0412-4.6239z" fill="url(#linearGradient5901)"/>
    <path d="m461.43 354.56h8.9105s0.56831 3.2914 0 4.756c-0.78884 2.033-2.3114 4.668-4.3727 4.668-2.1197 0-3.676-2.7137-4.4965-4.8001-0.5589-1.4212-0.0412-4.6239-0.0412-4.6239z" fill="url(#linearGradient5918)"/>
    <path d="m473.49 354.56h8.9105s0.56831 3.2914 0 4.756c-0.78883 2.033-2.3114 4.668-4.3727 4.668-2.1197 0-3.676-2.7137-4.4965-4.8001-0.5589-1.4212-0.0412-4.6239-0.0412-4.6239z" fill="url(#linearGradient5918-0)"/>
    <path d="m485.46 354.56h8.9105s0.56832 3.2914 0 4.756c-0.78883 2.033-2.3114 4.668-4.3727 4.668-2.1197 0-3.676-2.7137-4.4965-4.8001-0.55889-1.4212-0.0412-4.6239-0.0412-4.6239z" fill="url(#linearGradient5958)"/>
    <path d="m497.49 354.56h8.9105s0.56832 3.2914 0 4.756c-0.78883 2.033-2.3114 4.668-4.3727 4.668-2.1197 0-3.676-2.7137-4.4965-4.8001-0.5589-1.4212-0.0412-4.6239-0.0412-4.6239z" fill="url(#linearGradient5962)"/>
    <path d="m509.41 354.56h8.9104s0.56832 3.2914 0 4.756c-0.78883 2.033-2.3114 4.668-4.3727 4.668-2.1197 0-3.676-2.7137-4.4965-4.8001-0.5589-1.4212-0.0412-4.6239-0.0412-4.6239z" fill="url(#linearGradient5966)"/>
    <path d="m521.41 354.56h8.9104s0.56832 3.2914 0 4.756c-0.78883 2.033-2.3114 4.668-4.3727 4.668-2.1197 0-3.676-2.7137-4.4965-4.8001-0.5589-1.4212-0.0412-4.6239-0.0412-4.6239z" fill="url(#linearGradient5970)"/>
    <path d="m533.41 354.56h8.9104s0.56832 3.2914 0 4.756c-0.78883 2.033-2.3114 4.668-4.3727 4.668-2.1197 0-3.676-2.7137-4.4965-4.8001-0.5589-1.4212-0.0412-4.6239-0.0412-4.6239z" fill="url(#linearGradient5974)"/>
    <path d="m545.41 354.56h8.9104s0.56832 3.2914 0 4.756c-0.78883 2.033-2.3114 4.668-4.3727 4.668-2.1197 0-3.676-2.7137-4.4965-4.8001-0.5589-1.4212-0.0412-4.6239-0.0412-4.6239z" fill="url(#linearGradient5978)"/>
    <path d="m557.41 354.56h8.9104s0.56832 3.2914 0 4.756c-0.78883 2.033-2.3114 4.668-4.3727 4.668-2.1197 0-3.676-2.7137-4.4965-4.8001-0.5589-1.4212-0.0412-4.6239-0.0412-4.6239z" fill="url(#linearGradient5982)"/>
    <path d="m569.41 354.56h8.9104s0.56832 3.2914 0 4.756c-0.78883 2.033-2.3114 4.668-4.3727 4.668-2.1197 0-3.676-2.7137-4.4965-4.8001-0.5589-1.4212-0.0412-4.6239-0.0412-4.6239z" fill="url(#linearGradient5986)"/>
    <path d="m581.41 354.56h8.9104s0.56832 3.2914 0 4.756c-0.78883 2.033-2.3114 4.668-4.3727 4.668-2.1197 0-3.676-2.7137-4.4965-4.8001-0.5589-1.4212-0.0412-4.6239-0.0412-4.6239z" fill="url(#linearGradient5990)"/>
    <path d="m593.41 354.56h8.9104s0.56832 3.2914 0 4.756c-0.78883 2.033-2.3114 4.668-4.3727 4.668-2.1197 0-3.676-2.7137-4.4965-4.8001-0.5589-1.4212-0.0412-4.6239-0.0412-4.6239z" fill="url(#linearGradient5994)"/>
   </g>
  </g>
  <g transform="matrix(.62525 0 0 .62525 329.77 668.68)">
   <g>
    <g>
     <rect stroke-linejoin="round" ry=".17857" height="28.065" width="160.58" stroke="#9a9a9a" stroke-linecap="round" y="123.62" x="446.97" stroke-width="1.0186" fill="url(#linearGradient5591)"/>
     <g stroke="#4e4e4e" stroke-width=".5">
      <rect ry=".17857" height="202.87" width="8.0187" y="152.11" x="449.88" fill="url(#linearGradient5601)"/>
      <rect ry=".17857" height="202.87" width="8.0187" y="152.11" x="461.88" fill="url(#linearGradient5795)"/>
      <rect ry=".17857" height="202.87" width="8.0187" y="152.11" x="473.88" fill="url(#linearGradient5799)"/>
      <rect ry=".17857" height="202.87" width="8.0187" y="152.11" x="485.88" fill="url(#linearGradient5803)"/>
      <rect ry=".17857" height="202.87" width="8.0187" y="152.11" x="497.88" fill="url(#linearGradient5807)"/>
      <rect ry=".17857" height="202.87" width="8.0187" y="152.11" x="509.88" fill="url(#linearGradient5819)"/>
      <rect ry=".17857" height="202.87" width="8.0187" y="152.11" x="521.88" fill="url(#linearGradient5821)"/>
      <rect ry=".17857" height="202.87" width="8.0187" y="152.11" x="533.88" fill="url(#linearGradient5823)"/>
      <rect ry=".17857" height="202.87" width="8.0187" y="152.11" x="545.88" fill="url(#linearGradient5825)"/>
      <rect ry=".17857" height="202.87" width="8.0187" y="152.11" x="557.88" fill="url(#linearGradient5827)"/>
      <rect ry=".17857" height="202.87" width="8.0187" y="152.11" x="569.88" fill="url(#linearGradient5835)"/>
      <rect ry=".17857" height="202.87" width="8.0187" y="152.11" x="581.88" fill="url(#linearGradient5837)"/>
      <rect ry=".17857" height="202.87" width="8.0187" y="152.11" x="593.88" fill="url(#linearGradient5839)"/>
     </g>
    </g>
    <path opacity=".69697" d="m439.46 356.97 46.508-3.2075s169.53-230.54 121.08-187.64c-51.417 45.53-161.98 122.69-161.98 122.69z" fill="url(#linearGradient5849)"/>
   </g>
   <path d="m446.68 146.07h161.18" stroke="#c4c4c4" stroke-width="1px" fill="none"/>
   <g>
    <path d="m446.48 149.48 161.38 2.2051s39.986-47.054-1.4033-28.466-159.97 26.261-159.97 26.261z" fill="url(#linearGradient5881)"/>
    <path d="m449.44 354.56h8.9105s0.56831 3.2914 0 4.756c-0.78884 2.033-2.3114 4.668-4.3727 4.668-2.1197 0-3.676-2.7137-4.4965-4.8001-0.5589-1.4212-0.0412-4.6239-0.0412-4.6239z" fill="url(#linearGradient5901)"/>
    <path d="m461.43 354.56h8.9105s0.56831 3.2914 0 4.756c-0.78884 2.033-2.3114 4.668-4.3727 4.668-2.1197 0-3.676-2.7137-4.4965-4.8001-0.5589-1.4212-0.0412-4.6239-0.0412-4.6239z" fill="url(#linearGradient5918)"/>
    <path d="m473.49 354.56h8.9105s0.56831 3.2914 0 4.756c-0.78883 2.033-2.3114 4.668-4.3727 4.668-2.1197 0-3.676-2.7137-4.4965-4.8001-0.5589-1.4212-0.0412-4.6239-0.0412-4.6239z" fill="url(#linearGradient5918-0)"/>
    <path d="m485.46 354.56h8.9105s0.56832 3.2914 0 4.756c-0.78883 2.033-2.3114 4.668-4.3727 4.668-2.1197 0-3.676-2.7137-4.4965-4.8001-0.55889-1.4212-0.0412-4.6239-0.0412-4.6239z" fill="url(#linearGradient5958)"/>
    <path d="m497.49 354.56h8.9105s0.56832 3.2914 0 4.756c-0.78883 2.033-2.3114 4.668-4.3727 4.668-2.1197 0-3.676-2.7137-4.4965-4.8001-0.5589-1.4212-0.0412-4.6239-0.0412-4.6239z" fill="url(#linearGradient5962)"/>
    <path d="m509.41 354.56h8.9104s0.56832 3.2914 0 4.756c-0.78883 2.033-2.3114 4.668-4.3727 4.668-2.1197 0-3.676-2.7137-4.4965-4.8001-0.5589-1.4212-0.0412-4.6239-0.0412-4.6239z" fill="url(#linearGradient5966)"/>
    <path d="m521.41 354.56h8.9104s0.56832 3.2914 0 4.756c-0.78883 2.033-2.3114 4.668-4.3727 4.668-2.1197 0-3.676-2.7137-4.4965-4.8001-0.5589-1.4212-0.0412-4.6239-0.0412-4.6239z" fill="url(#linearGradient5970)"/>
    <path d="m533.41 354.56h8.9104s0.56832 3.2914 0 4.756c-0.78883 2.033-2.3114 4.668-4.3727 4.668-2.1197 0-3.676-2.7137-4.4965-4.8001-0.5589-1.4212-0.0412-4.6239-0.0412-4.6239z" fill="url(#linearGradient5974)"/>
    <path d="m545.41 354.56h8.9104s0.56832 3.2914 0 4.756c-0.78883 2.033-2.3114 4.668-4.3727 4.668-2.1197 0-3.676-2.7137-4.4965-4.8001-0.5589-1.4212-0.0412-4.6239-0.0412-4.6239z" fill="url(#linearGradient5978)"/>
    <path d="m557.41 354.56h8.9104s0.56832 3.2914 0 4.756c-0.78883 2.033-2.3114 4.668-4.3727 4.668-2.1197 0-3.676-2.7137-4.4965-4.8001-0.5589-1.4212-0.0412-4.6239-0.0412-4.6239z" fill="url(#linearGradient5982)"/>
    <path d="m569.41 354.56h8.9104s0.56832 3.2914 0 4.756c-0.78883 2.033-2.3114 4.668-4.3727 4.668-2.1197 0-3.676-2.7137-4.4965-4.8001-0.5589-1.4212-0.0412-4.6239-0.0412-4.6239z" fill="url(#linearGradient5986)"/>
    <path d="m581.41 354.56h8.9104s0.56832 3.2914 0 4.756c-0.78883 2.033-2.3114 4.668-4.3727 4.668-2.1197 0-3.676-2.7137-4.4965-4.8001-0.5589-1.4212-0.0412-4.6239-0.0412-4.6239z" fill="url(#linearGradient5990)"/>
    <path d="m593.41 354.56h8.9104s0.56832 3.2914 0 4.756c-0.78883 2.033-2.3114 4.668-4.3727 4.668-2.1197 0-3.676-2.7137-4.4965-4.8001-0.5589-1.4212-0.0412-4.6239-0.0412-4.6239z" fill="url(#linearGradient5994)"/>
   </g>
  </g>
  <g transform="matrix(.62525 0 0 .62525 18.398 668.68)">
   <g>
    <g>
     <rect stroke-linejoin="round" ry=".17857" height="28.065" width="160.58" stroke="#9a9a9a" stroke-linecap="round" y="123.62" x="446.97" stroke-width="1.0186" fill="url(#linearGradient5591)"/>
     <g stroke="#4e4e4e" stroke-width=".5">
      <rect ry=".17857" height="202.87" width="8.0187" y="152.11" x="449.88" fill="url(#linearGradient5601)"/>
      <rect ry=".17857" height="202.87" width="8.0187" y="152.11" x="461.88" fill="url(#linearGradient5795)"/>
      <rect ry=".17857" height="202.87" width="8.0187" y="152.11" x="473.88" fill="url(#linearGradient5799)"/>
      <rect ry=".17857" height="202.87" width="8.0187" y="152.11" x="485.88" fill="url(#linearGradient5803)"/>
      <rect ry=".17857" height="202.87" width="8.0187" y="152.11" x="497.88" fill="url(#linearGradient5807)"/>
      <rect ry=".17857" height="202.87" width="8.0187" y="152.11" x="509.88" fill="url(#linearGradient5819)"/>
      <rect ry=".17857" height="202.87" width="8.0187" y="152.11" x="521.88" fill="url(#linearGradient5821)"/>
      <rect ry=".17857" height="202.87" width="8.0187" y="152.11" x="533.88" fill="url(#linearGradient5823)"/>
      <rect ry=".17857" height="202.87" width="8.0187" y="152.11" x="545.88" fill="url(#linearGradient5825)"/>
      <rect ry=".17857" height="202.87" width="8.0187" y="152.11" x="557.88" fill="url(#linearGradient5827)"/>
      <rect ry=".17857" height="202.87" width="8.0187" y="152.11" x="569.88" fill="url(#linearGradient5835)"/>
      <rect ry=".17857" height="202.87" width="8.0187" y="152.11" x="581.88" fill="url(#linearGradient5837)"/>
      <rect ry=".17857" height="202.87" width="8.0187" y="152.11" x="593.88" fill="url(#linearGradient5839)"/>
     </g>
    </g>
    <path opacity=".69697" d="m439.46 356.97 46.508-3.2075s169.53-230.54 121.08-187.64c-51.417 45.53-161.98 122.69-161.98 122.69z" fill="url(#linearGradient5849)"/>
   </g>
   <path d="m446.68 146.07h161.18" stroke="#c4c4c4" stroke-width="1px" fill="none"/>
   <g>
    <path d="m446.48 149.48 161.38 2.2051s39.986-47.054-1.4033-28.466-159.97 26.261-159.97 26.261z" fill="url(#linearGradient5881)"/>
    <path d="m449.44 354.56h8.9105s0.56831 3.2914 0 4.756c-0.78884 2.033-2.3114 4.668-4.3727 4.668-2.1197 0-3.676-2.7137-4.4965-4.8001-0.5589-1.4212-0.0412-4.6239-0.0412-4.6239z" fill="url(#linearGradient5901)"/>
    <path d="m461.43 354.56h8.9105s0.56831 3.2914 0 4.756c-0.78884 2.033-2.3114 4.668-4.3727 4.668-2.1197 0-3.676-2.7137-4.4965-4.8001-0.5589-1.4212-0.0412-4.6239-0.0412-4.6239z" fill="url(#linearGradient5918)"/>
    <path d="m473.49 354.56h8.9105s0.56831 3.2914 0 4.756c-0.78883 2.033-2.3114 4.668-4.3727 4.668-2.1197 0-3.676-2.7137-4.4965-4.8001-0.5589-1.4212-0.0412-4.6239-0.0412-4.6239z" fill="url(#linearGradient5918-0)"/>
    <path d="m485.46 354.56h8.9105s0.56832 3.2914 0 4.756c-0.78883 2.033-2.3114 4.668-4.3727 4.668-2.1197 0-3.676-2.7137-4.4965-4.8001-0.55889-1.4212-0.0412-4.6239-0.0412-4.6239z" fill="url(#linearGradient5958)"/>
    <path d="m497.49 354.56h8.9105s0.56832 3.2914 0 4.756c-0.78883 2.033-2.3114 4.668-4.3727 4.668-2.1197 0-3.676-2.7137-4.4965-4.8001-0.5589-1.4212-0.0412-4.6239-0.0412-4.6239z" fill="url(#linearGradient5962)"/>
    <path d="m509.41 354.56h8.9104s0.56832 3.2914 0 4.756c-0.78883 2.033-2.3114 4.668-4.3727 4.668-2.1197 0-3.676-2.7137-4.4965-4.8001-0.5589-1.4212-0.0412-4.6239-0.0412-4.6239z" fill="url(#linearGradient5966)"/>
    <path d="m521.41 354.56h8.9104s0.56832 3.2914 0 4.756c-0.78883 2.033-2.3114 4.668-4.3727 4.668-2.1197 0-3.676-2.7137-4.4965-4.8001-0.5589-1.4212-0.0412-4.6239-0.0412-4.6239z" fill="url(#linearGradient5970)"/>
    <path d="m533.41 354.56h8.9104s0.56832 3.2914 0 4.756c-0.78883 2.033-2.3114 4.668-4.3727 4.668-2.1197 0-3.676-2.7137-4.4965-4.8001-0.5589-1.4212-0.0412-4.6239-0.0412-4.6239z" fill="url(#linearGradient5974)"/>
    <path d="m545.41 354.56h8.9104s0.56832 3.2914 0 4.756c-0.78883 2.033-2.3114 4.668-4.3727 4.668-2.1197 0-3.676-2.7137-4.4965-4.8001-0.5589-1.4212-0.0412-4.6239-0.0412-4.6239z" fill="url(#linearGradient5978)"/>
    <path d="m557.41 354.56h8.9104s0.56832 3.2914 0 4.756c-0.78883 2.033-2.3114 4.668-4.3727 4.668-2.1197 0-3.676-2.7137-4.4965-4.8001-0.5589-1.4212-0.0412-4.6239-0.0412-4.6239z" fill="url(#linearGradient5982)"/>
    <path d="m569.41 354.56h8.9104s0.56832 3.2914 0 4.756c-0.78883 2.033-2.3114 4.668-4.3727 4.668-2.1197 0-3.676-2.7137-4.4965-4.8001-0.5589-1.4212-0.0412-4.6239-0.0412-4.6239z" fill="url(#linearGradient5986)"/>
    <path d="m581.41 354.56h8.9104s0.56832 3.2914 0 4.756c-0.78883 2.033-2.3114 4.668-4.3727 4.668-2.1197 0-3.676-2.7137-4.4965-4.8001-0.5589-1.4212-0.0412-4.6239-0.0412-4.6239z" fill="url(#linearGradient5990)"/>
    <path d="m593.41 354.56h8.9104s0.56832 3.2914 0 4.756c-0.78883 2.033-2.3114 4.668-4.3727 4.668-2.1197 0-3.676-2.7137-4.4965-4.8001-0.5589-1.4212-0.0412-4.6239-0.0412-4.6239z" fill="url(#linearGradient5994)"/>
   </g>
  </g>
  <g transform="matrix(.62243 0 0 .62243 288.24 352.04)">
   <rect stroke-linejoin="round" ry=".17857" height="244.29" width="157.14" stroke="#333" stroke-linecap="round" y="328.59" x="353.68" stroke-width="5" fill="url(#linearGradient5468)"/>
   <a transform="translate(125.89 141.93)">
    <path d="m227.79 430.61v-58.589s127.88-65.503 156.64-150.31c28.76-84.805-2.3919 207.76-2.3919 207.76l-154.24 3.6594" fill="url(#linearGradient5470)"/>
   </a>
  </g>
  <g transform="matrix(.62243 0 0 .62243 186.43 352.04)">
   <rect stroke-linejoin="round" ry=".17857" height="244.29" width="157.14" stroke="#333" stroke-linecap="round" y="328.59" x="353.68" stroke-width="5" fill="url(#linearGradient5468)"/>
   <a transform="translate(125.89 141.93)">
    <path d="m227.79 430.61v-58.589s127.88-65.503 156.64-150.31c28.76-84.805-2.3919 207.76-2.3919 207.76l-154.24 3.6594" fill="url(#linearGradient5470)"/>
   </a>
  </g>
  <g transform="matrix(.62243 0 0 .62243 84.37 352.25)">
   <rect stroke-linejoin="round" ry=".17857" height="244.29" width="157.14" stroke="#333" stroke-linecap="round" y="328.59" x="353.68" stroke-width="5" fill="url(#linearGradient5468)"/>
   <a transform="translate(125.89 141.93)">
    <path d="m227.79 430.61v-58.589s127.88-65.503 156.64-150.31c28.76-84.805-2.3919 207.76-2.3919 207.76l-154.24 3.6594" fill="url(#linearGradient5470)"/>
   </a>
  </g>
  <g transform="matrix(.62243 0 0 .62243 -17.377 352.04)">
   <rect stroke-linejoin="round" ry=".17857" height="244.29" width="157.14" stroke="#333" stroke-linecap="round" y="328.59" x="353.68" stroke-width="5" fill="url(#linearGradient5468)"/>
   <a transform="translate(125.89 141.93)">
    <path d="m227.79 430.61v-58.589s127.88-65.503 156.64-150.31c28.76-84.805-2.3919 207.76-2.3919 207.76l-154.24 3.6594" fill="url(#linearGradient5470)"/>
   </a>
  </g>
  <g transform="matrix(.62243 0 0 .62243 -119.19 352.04)">
   <rect stroke-linejoin="round" ry=".17857" height="244.29" width="157.14" stroke="#333" stroke-linecap="round" y="328.59" x="353.68" stroke-width="5" fill="url(#linearGradient5468)"/>
   <a transform="translate(125.89 141.93)">
    <path d="m227.79 430.61v-58.589s127.88-65.503 156.64-150.31c28.76-84.805-2.3919 207.76-2.3919 207.76l-154.24 3.6594" fill="url(#linearGradient5470)"/>
   </a>
  </g>
  <g transform="translate(-265.57 221.11)" stroke="#000">
   <path d="m354.42 342.23h10.363" stroke-linecap="round" stroke-width="5.1728" fill="none"/>
   <path stroke-linejoin="round" d="m314.16 434.84c0 2.2316-1.809 4.0406-4.0406 4.0406s-4.0406-1.809-4.0406-4.0406 1.809-4.0406 4.0406-4.0406 4.0406 1.809 4.0406 4.0406z" transform="translate(43.748 -92.677)" fill="#ff9000"/>
  </g>
  <text id="flach_temp" style="word-spacing:0px;letter-spacing:0px;text-anchor:end;text-align:end" xml:space="preserve" font-size="18px" line-height="125%" y="570.46765" x="77.112701" font-family="Arial" font-style="oblique" fill="#000000"><tspan font-size="14px" y="570.46765" x="77.112701">? °C</tspan></text>
  <g transform="translate(-68.313 411.15)" stroke="#000">
   <path d="m354.42 342.23h10.363" stroke-linecap="round" stroke-width="5.1728" fill="none"/>
   <path stroke-linejoin="round" d="m314.16 434.84c0 2.2316-1.809 4.0406-4.0406 4.0406s-4.0406-1.809-4.0406-4.0406 1.809-4.0406 4.0406-4.0406 4.0406 1.809 4.0406 4.0406z" transform="translate(43.748 -92.677)" fill="#ff9000"/>
  </g>
  <text id="roehren_temp" style="word-spacing:0px;letter-spacing:0px;text-anchor:end;text-align:end" xml:space="preserve" font-size="18px" line-height="125%" y="760.51007" x="274.37189" font-family="Arial" font-style="oblique" fill="#000000"><tspan font-size="14px" y="760.51007" x="274.37189">? °C</tspan></text>
  <g transform="translate(-268.68 546.2)" stroke="#000">
   <path d="m354.42 342.23h10.363" stroke-linecap="round" stroke-width="5.1728" fill="none"/>
   <path stroke-linejoin="round" d="m314.16 434.84c0 2.2316-1.809 4.0406-4.0406 4.0406s-4.0406-1.809-4.0406-4.0406 1.809-4.0406 4.0406-4.0406 4.0406 1.809 4.0406 4.0406z" transform="translate(43.748 -92.677)" fill="#ff9000"/>
  </g>
  <text id="solarvl_temp" style="word-spacing:0px;letter-spacing:0px;text-anchor:end;text-align:end" xml:space="preserve" font-size="18px" line-height="125%" y="894.07813" x="74.005455" font-family="Arial" font-style="oblique" fill="#000000"><tspan font-size="14px" y="894.07813" x="74.005455">? °C</tspan></text>
  <g transform="matrix(-1 0 0 1 500.23 546.2)" stroke="#000">
   <path d="m354.42 342.23h10.363" stroke-linecap="round" stroke-width="5.1728" fill="none"/>
   <path stroke-linejoin="round" d="m314.16 434.84c0 2.2316-1.809 4.0406-4.0406 4.0406s-4.0406-1.809-4.0406-4.0406 1.809-4.0406 4.0406-4.0406 4.0406 1.809 4.0406 4.0406z" transform="translate(43.748 -92.677)" fill="#ff9000"/>
  </g>
  <text id="solarrl_temp" style="word-spacing:0px;letter-spacing:0px" xml:space="preserve" font-size="18px" line-height="125%" y="892.19604" x="156.25191" font-family="Arial" font-style="oblique" fill="#000000"><tspan font-size="14px" y="892.19604" x="156.25191">? °C</tspan></text>
  <g transform="translate(-56.843 550.19)" stroke="#000" fill="#fff">
   <rect stroke-linejoin="round" ry=".17857" height="74.574" width="74.574" y="351.81" x="135.53" stroke-width="1.3"/>
   <path d="m135.53 351.96 73.772 73.772" stroke-width="1.5"/>
  </g>
  <g stroke-linejoin="bevel" transform="matrix(0 .95647 -.95647 0 563.24 487.11)" stroke="#000" stroke-linecap="round" stroke-width="0.9">
   <path d="m271.73 334.83c0 6.4158-5.201 11.617-11.617 11.617-6.4158 0-11.617-5.201-11.617-11.617 0-6.4158 5.201-11.617 11.617-11.617 6.4158 0 11.617 5.201 11.617 11.617z" transform="translate(111.43 45.714)" fill="#fff"/>
   <path transform="matrix(.86038 0 0 .86038 157.22 91.553)" d="m255.77 324.35v11.541 11.541l-9.9945-5.7703-9.9945-5.7703 9.9945-5.7703z"/>
  </g>
  <text id="roehren_pumpe" style="word-spacing:0px;letter-spacing:0px" xml:space="preserve" font-size="14.997px" y="847.11572" x="217.14796" font-family="Arial" line-height="125%" fill="#000000"><tspan font-size="14px" y="847.11572" x="217.14796">?</tspan></text>
  <g stroke-linejoin="bevel" transform="matrix(0 .95647 -.95647 0 500.16 487.11)" stroke="#000" stroke-linecap="round" stroke-width="0.9">
   <path d="m271.73 334.83c0 6.4158-5.201 11.617-11.617 11.617-6.4158 0-11.617-5.201-11.617-11.617 0-6.4158 5.201-11.617 11.617-11.617 6.4158 0 11.617 5.201 11.617 11.617z" transform="translate(111.43 45.714)" fill="#fff"/>
   <path transform="matrix(.86038 0 0 .86038 157.22 91.553)" d="m255.77 324.35v11.541 11.541l-9.9945-5.7703-9.9945-5.7703 9.9945-5.7703z"/>
  </g>
  <text id="flach_pumpe" style="word-spacing:0px;letter-spacing:0px" xml:space="preserve" font-size="14.997px" y="847.11572" x="154.05922" font-family="Arial" line-height="125%" fill="#000000"><tspan font-size="14px" y="847.11572" x="154.05922">?</tspan></text>
  <text id="lade_pumpe" style="word-spacing:0px;letter-spacing:0px;text-anchor:middle;text-align:center" xml:space="preserve" font-size="14.997px" line-height="125%" y="987.24451" x="186.57343" font-family="Arial" fill="#000000"><tspan style="text-anchor:middle;text-align:center" font-size="14px" y="987.24451" x="186.57343">?</tspan></text>
  <path d="m152.35 958.15h135.52" stroke="#007fff" stroke-width="3" fill="none"/>
  <path d="m154.19 921.56h135.52" stroke="#f00" stroke-width="3" fill="none"/>
  <g stroke-linejoin="bevel" transform="matrix(.95647 0 0 .95647 -167.56 594.56)" stroke="#000" stroke-linecap="round" stroke-width="0.9">
   <path d="m271.73 334.83c0 6.4158-5.201 11.617-11.617 11.617-6.4158 0-11.617-5.201-11.617-11.617 0-6.4158 5.201-11.617 11.617-11.617 6.4158 0 11.617 5.201 11.617 11.617z" transform="translate(111.43 45.714)" fill="#fff"/>
   <path transform="matrix(.86038 0 0 .86038 157.22 91.553)" d="m255.77 324.35v11.541 11.541l-9.9945-5.7703-9.9945-5.7703 9.9945-5.7703z"/>
  </g>
  <g font-size="18px" font-family="Arial" fill="#000000">
   <text style="word-spacing:0px;letter-spacing:0px" xml:space="preserve" y="944.91199" x="250.98431" line-height="125%"><tspan font-size="14px" font-style="oblique" y="944.91199" x="250.98431">Zum Speicher</tspan></text>
   <text id="flach_info" style="word-spacing:0px;letter-spacing:0px" xml:space="preserve" y="511.10205" x="101.05389" line-height="125%"><tspan font-size="16px" y="511.10205" x="101.05389" font-weight="bold">Flachkollektoren</tspan><tspan font-size="14px" y="529.43091" x="101.05389">Gesamt: ?</tspan><tspan font-size="14px" y="546.93091" x="101.05389">Aktuell: ?</tspan></text>
   <text id="roehren_info" style="word-spacing:0px;letter-spacing:0px" xml:space="preserve" line-height="125%" y="916.78003" x="568.10864"><tspan font-size="16px" y="916.78003" x="568.10864" font-weight="bold">Röhrenkollektoren</tspan><tspan font-size="14px" y="935.10889" x="568.10864">Gesamt: ?</tspan><tspan font-size="14px" y="952.60889" x="568.10864">Aktuell: ?</tspan></text>
  </g>
 </g>
</svg>
