<?xml version="1.0" encoding="UTF-8" standalone="no"?>
<!-- Created with Inkscape (http://www.inkscape.org/) -->
<svg xmlns:rdf="http://www.w3.org/1999/02/22-rdf-syntax-ns#" xmlns="http://www.w3.org/2000/svg" height="600" width="800" version="1.1" xmlns:cc="http://creativecommons.org/ns#" xmlns:xlink="http://www.w3.org/1999/xlink" xmlns:dc="http://purl.org/dc/elements/1.1/">
 <defs>
  <linearGradient id="linearGradient3823" y2="246.84" gradientUnits="userSpaceOnUse" y1="380.47" gradientTransform="translate(230 228.01)" x2="252.23" x1="253.49">
   <stop stop-color="#0076ff" offset="0"/>
   <stop stop-color="#f00" offset="1"/>
  </linearGradient>
  <linearGradient id="linearGradient3772-2-6">
   <stop stop-color="#0076ff" offset="0"/>
   <stop stop-color="#f00" offset="1"/>
  </linearGradient>
  <linearGradient id="linearGradient3867" y2="246.84" xlink:href="#linearGradient3772-2-6" gradientUnits="userSpaceOnUse" y1="380.47" gradientTransform="translate(442.7 228.08)" x2="252.23" x1="253.49"/>
  <linearGradient id="linearGradient5348" y2="194.29" xlink:href="#linearGradient3772-2-6" gradientUnits="userSpaceOnUse" x2="492.07" gradientTransform="translate(111.43 249.29)" y1="373.57" x1="409.36"/>
  <linearGradient id="linearGradient6037" y2="246.84" gradientUnits="userSpaceOnUse" y1="380.47" gradientTransform="matrix(.70822 0 0 .58225 27.865 26.429)" x2="252.23" x1="253.49">
   <stop stop-color="#0076ff" offset="0"/>
   <stop stop-color="#f00" offset="1"/>
  </linearGradient>
 </defs>
 <g transform="translate(-111.43 -45.714)">
  <g transform="translate(-70.294 -1.7304)" stroke="#000">
   <path d="m354.42 342.23h10.363" stroke-linecap="round" stroke-width="5.1728" fill="none"/>
   <path stroke-linejoin="round" d="m314.16 434.84c0 2.2316-1.809 4.0406-4.0406 4.0406s-4.0406-1.809-4.0406-4.0406 1.809-4.0406 4.0406-4.0406 4.0406 1.809 4.0406 4.0406z" transform="translate(43.748 -92.677)" fill="#ff9000"/>
  </g>
  <path stroke-linejoin="round" d="m184.35 346.13v-117.36h-36.365v-32.325h-15.33" transform="translate(111.43 45.714)" stroke="#0042ff" stroke-width="3" fill="none"/>
  <path stroke-linejoin="round" d="m304.33 347.14-0.25254-138.58h-0.0218v-42.931h-16.601" transform="translate(111.43 45.714)" stroke="#003fff" stroke-width="3" fill="none"/>
  <g transform="matrix(-1 0 0 -1 951.99 654.61)" stroke="#000">
   <path d="m354.42 342.23h10.363" stroke-linecap="round" stroke-width="5.1728" fill="none"/>
   <path stroke-linejoin="round" d="m314.16 434.84c0 2.2316-1.809 4.0406-4.0406 4.0406s-4.0406-1.809-4.0406-4.0406 1.809-4.0406 4.0406-4.0406 4.0406 1.809 4.0406 4.0406z" transform="translate(43.748 -92.677)" fill="#ff9000"/>
  </g>
  <g transform="matrix(-1 0 0 -1 1112 940.45)" stroke="#000">
   <path d="m354.42 342.23h10.363" stroke-linecap="round" stroke-width="5.1728" fill="none"/>
   <path stroke-linejoin="round" d="m314.16 434.84c0 2.2316-1.809 4.0406-4.0406 4.0406s-4.0406-1.809-4.0406-4.0406 1.809-4.0406 4.0406-4.0406 4.0406 1.809 4.0406 4.0406z" transform="translate(43.748 -92.677)" fill="#ff9000"/>
  </g>
  <g transform="matrix(-1 0 0 -1 1112 798.34)" stroke="#000">
   <path d="m354.42 342.23h10.363" stroke-linecap="round" stroke-width="5.1728" fill="none"/>
   <path stroke-linejoin="round" d="m314.16 434.84c0 2.2316-1.809 4.0406-4.0406 4.0406s-4.0406-1.809-4.0406-4.0406 1.809-4.0406 4.0406-4.0406 4.0406 1.809 4.0406 4.0406z" transform="translate(43.748 -92.677)" fill="#ff9000"/>
  </g>
  <g transform="translate(70.942 256.05)" stroke="#000">
   <path d="m354.42 342.23h10.363" stroke-linecap="round" stroke-width="5.1728" fill="none"/>
   <path stroke-linejoin="round" d="m314.16 434.84c0 2.2316-1.809 4.0406-4.0406 4.0406s-4.0406-1.809-4.0406-4.0406 1.809-4.0406 4.0406-4.0406 4.0406 1.809 4.0406 4.0406z" transform="translate(43.748 -92.677)" fill="#ff9000"/>
  </g>
  <g transform="translate(71.492 113.94)" stroke="#000">
   <path d="m354.42 342.23h10.363" stroke-linecap="round" stroke-width="5.1728" fill="none"/>
   <path stroke-linejoin="round" d="m314.16 434.84c0 2.2316-1.809 4.0406-4.0406 4.0406s-4.0406-1.809-4.0406-4.0406 1.809-4.0406 4.0406-4.0406 4.0406 1.809 4.0406 4.0406z" transform="translate(43.748 -92.677)" fill="#ff9000"/>
  </g>
  <g transform="matrix(-1 0 0 -1 575.33 883.35)" stroke="#000">
   <path d="m354.42 342.23h10.363" stroke-linecap="round" stroke-width="5.1728" fill="none"/>
   <path stroke-linejoin="round" d="m314.16 434.84c0 2.2316-1.809 4.0406-4.0406 4.0406s-4.0406-1.809-4.0406-4.0406 1.809-4.0406 4.0406-4.0406 4.0406 1.809 4.0406 4.0406z" transform="translate(43.748 -92.677)" fill="#ff9000"/>
  </g>
  <g stroke="#000">
   <path d="m436.13 608.48v-157.2c-0.24693-20.662 99.474-18.686 99.173 0v157.2c0.15676 17.307-99.597 19.67-99.173 0z" stroke-width="1px" fill="url(#linearGradient3823)"/>
   <path d="m134.38 622.86h77.593v-106.28h-44.79l-32.803 30.915z" stroke-width=".76386px" fill="#fff"/>
   <path d="m648.83 608.55v-157.2c-0.24693-20.662 99.474-18.686 99.173 0v157.2c0.15676 17.307-99.597 19.67-99.173 0z" stroke-width="1px" fill="url(#linearGradient3867)"/>
  </g>
  <g fill="none">
   <path stroke-linejoin="round" d="m533.71 603.57h95.849v-184.29h67.249v19.25" stroke="url(#linearGradient5348)" stroke-width="7"/>
   <path stroke-linejoin="round" d="m211.94 528.06h114.15v-59.599h112.63" stroke="#ff1000" stroke-width="5"/>
   <path d="m281.64 529.23 0.0446 69.64" stroke="#f00" stroke-width="4.6499"/>
   <path d="m440.74 609.88h-228.29" stroke="#06f" stroke-width="5"/>
  </g>
  <g stroke="#000" transform="translate(76.875 121.52)">
   <g stroke-width=".93316px">
    <path d="m199.24 477.36 5.6054 11.037 5.6053-11.037z"/>
    <path d="m215.88 482.79-11.037 5.6054 11.037 5.6053z"/>
    <path d="m193.81 494 11.037-5.6054-11.037-5.6053z"/>
   </g>
   <path stroke-linejoin="round" d="m97.985 431.3c0 2.2316-1.809 4.0406-4.0406 4.0406s-4.0406-1.809-4.0406-4.0406 1.809-4.0406 4.0406-4.0406 4.0406 1.809 4.0406 4.0406z" transform="translate(110.9 57.089)" stroke-linecap="round" fill="#fff"/>
  </g>
  <g stroke="#000" transform="translate(-378.24 87.001)">
   <rect stroke-linejoin="round" transform="translate(111.43 45.714)" ry=".17857" height="64.89" width="115.16" stroke-linecap="round" y="24.213" x="550.53" fill="#fff"/>
   <g stroke-width="1px" fill="none">
    <path d="m670.93 76.115v51.77"/>
    <path d="m710.93 76.115v51.77"/>
    <path d="m702.93 76.115v51.77"/>
    <path d="m694.93 76.115v51.77"/>
    <path d="m686.93 76.115v51.77"/>
    <path d="m678.93 76.115v51.77"/>
    <path d="m718.93 76.115v51.77"/>
    <path d="m726.93 76.115v51.77"/>
    <path d="m734.93 76.115v51.77"/>
    <path d="m742.93 76.115v51.77"/>
    <path d="m750.93 76.115v51.77"/>
    <path d="m758.93 76.115v51.77"/>
    <path d="m766.93 76.115v51.77"/>
   </g>
  </g>
  <g stroke="#000" transform="translate(-226.02 87.001)">
   <rect stroke-linejoin="round" transform="translate(111.43 45.714)" ry=".17857" height="64.89" width="115.16" stroke-linecap="round" y="24.213" x="550.53" fill="#fff"/>
   <g stroke-width="1px" fill="none">
    <path d="m670.93 76.115v51.77"/>
    <path d="m710.93 76.115v51.77"/>
    <path d="m702.93 76.115v51.77"/>
    <path d="m694.93 76.115v51.77"/>
    <path d="m686.93 76.115v51.77"/>
    <path d="m678.93 76.115v51.77"/>
    <path d="m718.93 76.115v51.77"/>
    <path d="m726.93 76.115v51.77"/>
    <path d="m734.93 76.115v51.77"/>
    <path d="m742.93 76.115v51.77"/>
    <path d="m750.93 76.115v51.77"/>
    <path d="m758.93 76.115v51.77"/>
    <path d="m766.93 76.115v51.77"/>
   </g>
  </g>
  <g transform="translate(380.34 -228.2)" stroke="#000">
   <path d="m354.42 342.23h10.363" stroke-linecap="round" stroke-width="5.1728" fill="none"/>
   <path stroke-linejoin="round" d="m314.16 434.84c0 2.2316-1.809 4.0406-4.0406 4.0406s-4.0406-1.809-4.0406-4.0406 1.809-4.0406 4.0406-4.0406 4.0406 1.809 4.0406 4.0406z" transform="translate(43.748 -92.677)" fill="#ff9000"/>
  </g>
  <g transform="matrix(-1 0 0 -1 1133.8 455.99)" stroke="#000">
   <path d="m354.42 342.23h10.363" stroke-linecap="round" stroke-width="5.1728" fill="none"/>
   <path stroke-linejoin="round" d="m314.16 434.84c0 2.2316-1.809 4.0406-4.0406 4.0406s-4.0406-1.809-4.0406-4.0406 1.809-4.0406 4.0406-4.0406 4.0406 1.809 4.0406 4.0406z" transform="translate(43.748 -92.677)" fill="#ff9000"/>
  </g>
  <rect stroke-linejoin="round" ry=".17857" height="128" width="24.747" stroke="#000" stroke-linecap="round" y="95.116" x="744.29" fill="#fff"/>
  <g stroke="#000" stroke-width="1px" fill="none">
   <path d="m744.29 207.12 24.737-0.12009"/>
   <path d="m744.29 191.12 24.737-0.12009"/>
   <path d="m744.29 175.12 24.737-0.12009"/>
   <path d="m744.29 159.12 24.737-0.12009"/>
   <path d="m744.29 143.12 24.737-0.12009"/>
   <path d="m744.29 127.12 24.737-0.12009"/>
   <path d="m744.29 111.12 24.737-0.12009"/>
   <path d="m756.66 223.12v-15.686"/>
   <path d="m756.66 223.12v-15.686"/>
   <path d="m756.66 191.12v-15.686"/>
   <path d="m756.66 159.12v-15.686"/>
   <path d="m756.66 127.12v-15.686"/>
  </g>
  <g font-size="40px" font-family="Arial">
   <text style="word-spacing:0px;letter-spacing:0px" xml:space="preserve" y="576.05396" x="146.11636" line-height="125%" fill="#000000"><tspan font-size="18px" line-height="125%" y="576.05396" x="146.11636">Kessel</tspan></text>
   <text style="word-spacing:0px;letter-spacing:0px" xml:space="preserve" y="535.88184" x="455.1412" line-height="125%" fill="#ffffff"><tspan font-size="18px" line-height="125%" y="535.88184" x="455.1412" fill="#ffffff">Puffer 1</tspan></text>
   <text style="word-spacing:0px;letter-spacing:0px" xml:space="preserve" y="535.95245" x="666.66522" line-height="125%" fill="#ffffff"><tspan font-size="18px" line-height="125%" y="535.95245" x="666.66522" fill="#ffffff">Puffer 2</tspan></text>
  </g>
  <g stroke-linejoin="bevel" transform="matrix(1.148 0 0 1.148 -181.41 172.61)" stroke="#000" stroke-linecap="round" stroke-width="0.9">
   <path d="m271.73 334.83c0 6.4158-5.201 11.617-11.617 11.617-6.4158 0-11.617-5.201-11.617-11.617 0-6.4158 5.201-11.617 11.617-11.617 6.4158 0 11.617 5.201 11.617 11.617z" transform="translate(111.43 45.714)" fill="#fff"/>
   <path d="m255.77 324.35v11.541 11.541l-9.9945-5.7703-9.9945-5.7703 9.9945-5.7703z" transform="matrix(.86038 0 0 .86038 157.22 91.553)"/>
  </g>
  <g fill="none">
   <path stroke-linejoin="round" d="m634.29 561.79h82.143v-203.57h-317.14v-13.929" transform="translate(111.43 45.714)" stroke="#0062ff" stroke-width="5"/>
   <path d="m597.31 392.86h-314.24" stroke="#0058ff" stroke-width="8.8925"/>
   <g stroke-linejoin="round">
    <path d="m415.68 422.14h39.316l-0.35714-97.955" transform="translate(111.43 45.714)" stroke="#f00" stroke-width="5"/>
    <path d="m475.78 323.72v-208.6h-36.365" transform="translate(111.43 45.714)" stroke="#f00" stroke-width="3"/>
    <path d="m447.25 347.14 0.25254-182.01h-8.0812" transform="translate(111.43 45.714)" stroke="#003bff" stroke-width="3"/>
   </g>
   <path d="m597 369.9h-313.57" stroke="#f00" stroke-width="8.8808"/>
  </g>
  <g stroke-linejoin="bevel" transform="matrix(0 1.148 -1.148 0 1024.1 -87.79)" stroke="#000" stroke-linecap="round" stroke-width="0.9">
   <path d="m271.73 334.83c0 6.4158-5.201 11.617-11.617 11.617-6.4158 0-11.617-5.201-11.617-11.617 0-6.4158 5.201-11.617 11.617-11.617 6.4158 0 11.617 5.201 11.617 11.617z" transform="translate(111.43 45.714)" fill="#fff"/>
   <path transform="matrix(.86038 0 0 .86038 157.22 91.553)" d="m255.77 324.35v11.541 11.541l-9.9945-5.7703-9.9945-5.7703 9.9945-5.7703z"/>
  </g>
  <g transform="matrix(-1 0 0 -1 813.58 654.61)" stroke="#000">
   <path d="m354.42 342.23h10.363" stroke-linecap="round" stroke-width="5.1728" fill="none"/>
   <path stroke-linejoin="round" d="m314.16 434.84c0 2.2316-1.809 4.0406-4.0406 4.0406s-4.0406-1.809-4.0406-4.0406 1.809-4.0406 4.0406-4.0406 4.0406 1.809 4.0406 4.0406z" transform="translate(43.748 -92.677)" fill="#ff9000"/>
  </g>
  <path stroke-linejoin="round" d="m337.75 324.19-1.27-129.19h-19.34v-80.373l-29.688 0.25254" transform="translate(111.43 45.714)" stroke="#f00" stroke-width="3" fill="none"/>
  <g stroke-linejoin="bevel" transform="matrix(0 1.148 -1.148 0 885.67 -87.79)" stroke="#000" stroke-linecap="round" stroke-width="0.9">
   <path d="m271.73 334.83c0 6.4158-5.201 11.617-11.617 11.617-6.4158 0-11.617-5.201-11.617-11.617 0-6.4158 5.201-11.617 11.617-11.617 6.4158 0 11.617 5.201 11.617 11.617z" transform="translate(111.43 45.714)" fill="#fff"/>
   <path transform="matrix(.86038 0 0 .86038 157.22 91.553)" d="m255.77 324.35v11.541 11.541l-9.9945-5.7703-9.9945-5.7703 9.9945-5.7703z"/>
  </g>
  <path d="m173.85 247.96v-91.529c-0.17489-12.03 70.449-10.88 70.236 0v91.529c0.11098 10.077-70.537 11.453-70.236 0z" stroke="#000" stroke-width=".64215px" fill="url(#linearGradient6037)"/>
  <text style="word-spacing:0px;letter-spacing:0px" xml:space="preserve" font-size="14px" y="196.80518" x="208.56384" font-family="Arial" line-height="125%" fill="#ffffff"><tspan style="text-anchor:middle;text-align:center" line-height="125%" y="196.80518" x="208.56384">WW</tspan><tspan style="text-anchor:middle;text-align:center" line-height="125%" y="214.30518" x="208.56384">Speicher</tspan></text>
  <path stroke-linejoin="round" d="m215.88 323.72v-107.58h-52.233v-101.52h-30.988" transform="translate(111.43 45.714)" stroke="#f00" stroke-width="3" fill="none"/>
  <g stroke-linejoin="bevel" transform="matrix(0 1.148 -1.148 0 764.3 -87.79)" stroke="#000" stroke-linecap="round" stroke-width="0.9">
   <path d="m271.73 334.83c0 6.4158-5.201 11.617-11.617 11.617-6.4158 0-11.617-5.201-11.617-11.617 0-6.4158 5.201-11.617 11.617-11.617 6.4158 0 11.617 5.201 11.617 11.617z" transform="translate(111.43 45.714)" fill="#fff"/>
   <path transform="matrix(.86038 0 0 .86038 157.22 91.553)" d="m255.77 324.35v11.541 11.541l-9.9945-5.7703-9.9945-5.7703 9.9945-5.7703z"/>
  </g>
  <g font-size="14px" font-family="Arial" fill="#000000">
   <g>
    <text style="word-spacing:0px;letter-spacing:0px;text-anchor:end;text-align:end" xml:space="preserve" line-height="125%" y="101.74714" x="725.87793"><tspan style="text-anchor:end;text-align:end" font-size="14px" y="101.74714" x="725.87793">Innen</tspan></text>
    <text style="word-spacing:0px;letter-spacing:0px" xml:space="preserve" y="101.74714" x="792.54803" line-height="125%"><tspan font-size="14px" y="101.74714" x="792.54803">Außen</tspan></text>
    <text style="word-spacing:0px;letter-spacing:0px" xml:space="preserve" y="150.46239" x="306.77661" line-height="125%"><tspan x="306.77661" y="150.46239">Heizkörper</tspan></text>
    <text style="word-spacing:0px;letter-spacing:0px" xml:space="preserve" y="151.07372" x="461.49463" line-height="125%"><tspan x="461.49463" y="151.07372">Fußboden</tspan></text>
    <text id="kessel_temp" style="word-spacing:0px;letter-spacing:0px" xml:space="preserve" y="546.19653" x="228.9635" line-height="125%"><tspan font-size="14px" font-style="oblique" y="546.19653" x="228.9635">? °C</tspan></text>
    <text id="speicher1_oben" style="word-spacing:0px;letter-spacing:0px;text-anchor:end;text-align:end" xml:space="preserve" line-height="125%" y="461.11636" x="410.95633"><tspan style="text-anchor:end;text-align:end" font-size="14px" font-style="oblique" y="461.11636" x="410.95633">? °C</tspan></text>
   </g>
   <g font-style="oblique">
    <text id="speicher1_unten" style="word-spacing:0px;letter-spacing:0px;text-anchor:end;text-align:end" xml:space="preserve" line-height="125%" y="603.22504" x="413.3277"><tspan x="413.3277" y="603.22504">? °C</tspan></text>
    <text id="speicher2_oben" style="word-spacing:0px;letter-spacing:0px" xml:space="preserve" y="461.11636" x="768.29767" line-height="125%"><tspan x="768.29767" y="461.11636">? °C</tspan></text>
    <text id="speicher2_unten" style="word-spacing:0px;letter-spacing:0px" xml:space="preserve" y="602.66431" x="768.59552" line-height="125%"><tspan x="768.59552" y="602.66431">? °C</tspan></text>
    <text id="aussen_temp" style="word-spacing:0px;letter-spacing:0px" xml:space="preserve" y="118.77012" x="791.57733" line-height="125%"><tspan x="791.57733" y="118.77012">? °C</tspan></text>
    <text id="innen_temp" style="word-spacing:0px;letter-spacing:0px;text-anchor:end;text-align:end" xml:space="preserve" line-height="125%" y="118.77012" x="725.01093"><tspan x="725.01093" y="118.77012">? °C</tspan></text>
   </g>
   <g>
    <text id="rl3_temp" style="word-spacing:0px;letter-spacing:0px;text-anchor:end;text-align:end" xml:space="preserve" line-height="125%" y="345.44376" x="273.22324"><tspan style="text-anchor:end;text-align:end" font-size="14px" font-style="oblique" y="345.44376" x="273.22324">? °C</tspan></text>
    <text id="vl1_temp" style="word-spacing:0px;letter-spacing:0px" xml:space="preserve" line-height="125%" y="317.38879" x="469.26535"><tspan font-size="14px" font-style="oblique" y="317.38879" x="469.26535">? °C</tspan></text>
    <text id="vl2_temp" style="word-spacing:0px;letter-spacing:0px" xml:space="preserve" line-height="125%" y="317.38879" x="607.65826"><tspan font-size="14px" font-style="oblique" y="317.38879" x="607.65826">? °C</tspan></text>
    <text id="ww_pump" style="word-spacing:0px;letter-spacing:0px" xml:space="preserve" y="343.74664" x="346.17712" line-height="125%"><tspan x="346.17712" y="343.74664">?</tspan></text>
    <text id="hz_pump" style="word-spacing:0px;letter-spacing:0px" line-height="125%" y="343.74664" x="466.67914" xml:space="preserve"><tspan y="343.74664" x="466.67914">?</tspan></text>
    <text id="fb_pump" style="word-spacing:0px;letter-spacing:0px" xml:space="preserve" y="343.74664" x="606.50055" line-height="125%"><tspan x="606.50055" y="343.74664">?</tspan></text>
   </g>
  </g>
 </g>
</svg>
